<svg width="560" height="503" viewBox="0 0 560 503" fill="none" xmlns="http://www.w3.org/2000/svg">
<g filter="url(#filter0_f_48_5379)">
<rect x="167" y="110" width="226" height="226" rx="113" fill="#FF848C" fill-opacity="0.3"/>
</g>
<path d="M267.126 223.403C259.08 219.659 255.591 210.101 259.335 202.055C263.079 194.008 272.637 190.52 280.683 194.263L303.432 204.847C311.478 208.591 314.967 218.149 311.223 226.195C307.479 234.242 297.921 237.73 289.875 233.987L267.126 223.403Z" fill="#FF3120"/>
<path d="M267.22 211.379C260.671 205.254 260.327 194.98 266.452 188.431L276.848 177.315C282.973 170.767 293.247 170.423 299.796 176.548L317.878 193.459C324.427 199.584 324.77 209.858 318.646 216.406L308.249 227.523C302.124 234.071 291.851 234.415 285.302 228.29L267.22 211.379Z" fill="url(#paint0_linear_48_5379)"/>
<g filter="url(#filter1_biiii_48_5379)">
<path d="M246.83 244.702C238.302 241.931 233.635 232.772 236.406 224.244L247.277 190.79C250.047 182.262 259.207 177.596 267.734 180.366L314.056 195.418C322.583 198.188 327.25 207.348 324.479 215.875L313.609 249.33C310.838 257.857 301.679 262.524 293.151 259.753L246.83 244.702Z" fill="white" fill-opacity="0.2"/>
</g>
<g filter="url(#filter2_f_48_5379)">
<path d="M290.771 228.236C290.299 232.818 292.988 237.024 297.202 238.307L315.986 244.41C317.729 244.976 319.622 243.958 320.216 242.132L323.92 230.731C324.508 228.907 323.58 226.968 321.839 226.398L302.718 220.185C297.949 218.652 292.786 221.451 291.172 226.442C290.982 227.026 290.849 227.628 290.771 228.236Z" fill="#A9CFFF"/>
</g>
<g filter="url(#filter3_biii_48_5379)">
<path d="M291.607 225.662C291.135 230.245 293.824 234.451 298.038 235.733L316.822 241.837C318.565 242.403 320.458 241.385 321.052 239.558L324.756 228.157C325.345 226.334 324.416 224.394 322.675 223.824L303.554 217.611C298.785 216.079 293.622 218.877 292.008 223.869C291.819 224.453 291.685 225.055 291.607 225.662Z" fill="white" fill-opacity="0.2"/>
</g>
<g filter="url(#filter4_f_48_5379)">
<circle cx="299.325" cy="227.618" r="4.0588" transform="rotate(18.0004 299.325 227.618)" fill="#A9CFFF"/>
</g>
<g filter="url(#filter5_biii_48_5379)">
<circle cx="299.744" cy="226.331" r="4.0588" transform="rotate(18.0004 299.744 226.331)" fill="white" fill-opacity="0.2"/>
</g>
<g filter="url(#filter6_f_48_5379)">
<path d="M285.226 214.501L257.914 205.627C255.873 204.954 254.784 202.681 255.484 200.555C256.182 198.437 258.388 197.255 260.423 197.907L287.752 206.787C289.799 207.442 290.91 209.706 290.227 211.839C289.542 213.975 287.325 215.173 285.278 214.518L285.243 214.507L285.226 214.501Z" fill="#A9CFFF"/>
</g>
<g filter="url(#filter7_biii_48_5379)">
<path d="M286.062 211.928L258.751 203.053C256.709 202.38 255.62 200.108 256.32 197.981C257.018 195.863 259.225 194.682 261.259 195.333L288.588 204.213C290.636 204.869 291.746 207.133 291.063 209.265C290.378 211.402 288.161 212.6 286.114 211.945L286.08 211.933L286.062 211.928Z" fill="white" fill-opacity="0.2"/>
</g>
<path d="M250.363 222.388L249.925 221.528C249.754 221.194 249.721 220.805 249.838 220.445L250.14 219.516C250.626 218.021 249.804 216.41 248.308 215.924L247.38 215.623C247.019 215.505 246.724 215.249 246.553 214.915L246.109 214.044C245.388 212.645 243.667 212.085 242.267 212.805L241.407 213.243C241.073 213.413 240.684 213.447 240.323 213.33L239.395 213.028C237.899 212.542 236.287 213.362 235.801 214.857L235.503 215.776C235.383 216.146 235.127 216.441 234.793 216.611L233.921 217.056C232.521 217.776 231.971 219.5 232.683 220.896L233.124 221.747C233.292 222.09 233.325 222.479 233.207 222.84L232.906 223.767C232.42 225.263 233.241 226.875 234.737 227.361L235.666 227.663C236.026 227.78 236.322 228.035 236.493 228.369L236.936 229.241C237.298 229.937 237.908 230.422 238.602 230.648C239.296 230.873 240.074 230.839 240.779 230.479L241.639 230.041C241.973 229.871 242.362 229.839 242.722 229.956L243.651 230.258C245.147 230.744 246.759 229.922 247.245 228.426L247.546 227.499C247.663 227.138 247.919 226.843 248.253 226.672L249.101 226.241C249.113 226.235 249.124 226.229 249.137 226.222C249.808 225.874 250.31 225.279 250.535 224.555C250.769 223.835 250.712 223.059 250.363 222.388Z" fill="#FF9B26"/>
<g filter="url(#filter8_biii_48_5379)">
<path d="M254.147 222.705L253.522 221.477C253.278 221 253.231 220.444 253.398 219.93L253.829 218.604C254.523 216.468 253.349 214.167 251.213 213.473L249.887 213.042C249.372 212.875 248.95 212.509 248.707 212.032L248.072 210.788C247.042 208.789 244.584 207.99 242.585 209.018L241.357 209.643C240.88 209.887 240.323 209.935 239.808 209.768L238.482 209.337C236.346 208.642 234.044 209.814 233.35 211.95L232.924 213.262C232.752 213.79 232.387 214.212 231.91 214.455L230.665 215.09C228.666 216.118 227.88 218.581 228.897 220.574L229.527 221.789C229.766 222.279 229.813 222.835 229.645 223.351L229.215 224.675C228.521 226.811 229.694 229.114 231.831 229.808L233.156 230.239C233.671 230.406 234.094 230.77 234.337 231.247L234.971 232.493C235.488 233.486 236.359 234.18 237.35 234.502C238.341 234.824 239.453 234.774 240.459 234.261L241.687 233.635C242.165 233.392 242.72 233.347 243.235 233.514L244.561 233.945C246.698 234.639 249 233.465 249.694 231.329L250.124 230.005C250.292 229.489 250.657 229.067 251.134 228.824L252.345 228.208C252.362 228.199 252.379 228.191 252.396 228.181C253.355 227.684 254.072 226.834 254.394 225.8C254.728 224.771 254.647 223.664 254.147 222.705Z" fill="white" fill-opacity="0.2"/>
</g>
<mask id="mask0_48_5379" style="mask-type:alpha" maskUnits="userSpaceOnUse" x="262" y="225" width="55" height="34">
<path d="M307.466 257.291C314.269 251.678 316.552 242.462 316.552 242.462L270.857 225.481L262.914 249.928C262.914 249.928 300.663 262.905 307.466 257.291Z" fill="#050121"/>
</mask>
<g mask="url(#mask0_48_5379)">
<path d="M310.394 276.736C305.776 290.949 290.511 298.727 276.298 294.109C262.085 289.491 254.308 274.225 258.926 260.013C263.544 245.8 278.809 238.022 293.022 242.64C307.234 247.258 315.012 262.524 310.394 276.736Z" stroke="white" stroke-width="2.36763" stroke-linecap="round" stroke-linejoin="round" stroke-dasharray="4.74 4.74"/>
</g>
<path d="M257.145 242.394C257.133 242.369 257.12 242.344 257.107 242.32L249.687 229.377C249.681 229.367 249.675 229.356 249.669 229.346C249.011 228.285 247.832 227.72 246.593 227.87C245.354 228.02 244.345 228.851 243.959 230.038L239.126 244.913C238.855 245.747 238.923 246.638 239.318 247.42C239.698 248.173 240.356 248.751 241.122 249.006L241.139 249.011C241.826 249.235 242.845 249.258 243.664 248.659C243.686 248.642 243.708 248.625 243.729 248.607L245.063 247.458L245.836 253.845C245.837 253.85 245.837 253.854 245.838 253.858C246.006 255.11 246.893 256.103 248.027 256.472C248.452 256.61 248.911 256.66 249.381 256.604C250.238 256.501 251.001 256.068 251.529 255.385C252.056 254.701 252.282 253.853 252.164 253L251.707 249.629C251.628 249.051 251.096 248.646 250.517 248.724C249.939 248.803 249.534 249.335 249.612 249.913L250.07 253.287C250.11 253.576 250.034 253.862 249.855 254.093C249.677 254.324 249.419 254.471 249.13 254.505C248.549 254.575 248.014 254.162 247.934 253.583L246.991 245.798L247.879 245.034L253.365 246.817C253.378 246.821 253.391 246.825 253.403 246.828C254.611 247.172 255.87 246.785 256.688 245.82C257.511 244.849 257.686 243.536 257.145 242.394ZM255.075 244.454C254.972 244.576 254.59 244.96 253.997 244.8L247.967 242.84C247.616 242.726 247.23 242.804 246.951 243.045L242.392 246.968C242.252 247.054 241.994 247.069 241.789 247C241.311 246.841 240.926 246.213 241.136 245.566L245.97 230.691C246.163 230.095 246.69 229.987 246.848 229.968C246.929 229.958 247.113 229.948 247.317 230.014C247.503 230.075 247.706 230.199 247.864 230.447L255.249 243.329C255.495 243.891 255.18 244.331 255.075 244.454Z" fill="#FF2DDD"/>
<defs>
<filter id="filter0_f_48_5379" x="0.600006" y="-56.4" width="558.8" height="558.8" filterUnits="userSpaceOnUse" color-interpolation-filters="sRGB">
<feFlood flood-opacity="0" result="BackgroundImageFix"/>
<feBlend mode="normal" in="SourceGraphic" in2="BackgroundImageFix" result="shape"/>
<feGaussianBlur stdDeviation="83.2" result="effect1_foregroundBlur_48_5379"/>
</filter>
<filter id="filter1_biiii_48_5379" x="230.196" y="174.156" width="100.494" height="91.8083" filterUnits="userSpaceOnUse" color-interpolation-filters="sRGB">
<feFlood flood-opacity="0" result="BackgroundImageFix"/>
<feGaussianBlur in="BackgroundImageFix" stdDeviation="2.70586"/>
<feComposite in2="SourceAlpha" operator="in" result="effect1_backgroundBlur_48_5379"/>
<feBlend mode="normal" in="SourceGraphic" in2="effect1_backgroundBlur_48_5379" result="shape"/>
<feColorMatrix in="SourceAlpha" type="matrix" values="0 0 0 0 0 0 0 0 0 0 0 0 0 0 0 0 0 0 127 0" result="hardAlpha"/>
<feOffset dy="1.35293"/>
<feGaussianBlur stdDeviation="2.70586"/>
<feComposite in2="hardAlpha" operator="arithmetic" k2="-1" k3="1"/>
<feColorMatrix type="matrix" values="0 0 0 0 1 0 0 0 0 1 0 0 0 0 1 0 0 0 0.3 0"/>
<feBlend mode="normal" in2="shape" result="effect2_innerShadow_48_5379"/>
<feColorMatrix in="SourceAlpha" type="matrix" values="0 0 0 0 0 0 0 0 0 0 0 0 0 0 0 0 0 0 127 0" result="hardAlpha"/>
<feOffset dy="-1.35293"/>
<feGaussianBlur stdDeviation="2.70586"/>
<feComposite in2="hardAlpha" operator="arithmetic" k2="-1" k3="1"/>
<feColorMatrix type="matrix" values="0 0 0 0 1 0 0 0 0 1 0 0 0 0 1 0 0 0 0.5 0"/>
<feBlend mode="normal" in2="effect2_innerShadow_48_5379" result="effect3_innerShadow_48_5379"/>
<feColorMatrix in="SourceAlpha" type="matrix" values="0 0 0 0 0 0 0 0 0 0 0 0 0 0 0 0 0 0 127 0" result="hardAlpha"/>
<feOffset dy="1.35293"/>
<feGaussianBlur stdDeviation="29.7645"/>
<feComposite in2="hardAlpha" operator="arithmetic" k2="-1" k3="1"/>
<feColorMatrix type="matrix" values="0 0 0 0 1 0 0 0 0 1 0 0 0 0 1 0 0 0 0.45 0"/>
<feBlend mode="normal" in2="effect3_innerShadow_48_5379" result="effect4_innerShadow_48_5379"/>
<feColorMatrix in="SourceAlpha" type="matrix" values="0 0 0 0 0 0 0 0 0 0 0 0 0 0 0 0 0 0 127 0" result="hardAlpha"/>
<feOffset dx="1.35293" dy="1.35293"/>
<feGaussianBlur stdDeviation="1.35293"/>
<feComposite in2="hardAlpha" operator="arithmetic" k2="-1" k3="1"/>
<feColorMatrix type="matrix" values="0 0 0 0 1 0 0 0 0 1 0 0 0 0 1 0 0 0 1 0"/>
<feBlend mode="normal" in2="effect4_innerShadow_48_5379" result="effect5_innerShadow_48_5379"/>
</filter>
<filter id="filter2_f_48_5379" x="285.306" y="214.354" width="44.2024" height="35.6246" filterUnits="userSpaceOnUse" color-interpolation-filters="sRGB">
<feFlood flood-opacity="0" result="BackgroundImageFix"/>
<feBlend mode="normal" in="SourceGraphic" in2="BackgroundImageFix" result="shape"/>
<feGaussianBlur stdDeviation="2.70586" result="effect1_foregroundBlur_48_5379"/>
</filter>
<filter id="filter3_biii_48_5379" x="284.767" y="210.406" width="46.9519" height="38.3742" filterUnits="userSpaceOnUse" color-interpolation-filters="sRGB">
<feFlood flood-opacity="0" result="BackgroundImageFix"/>
<feGaussianBlur in="BackgroundImageFix" stdDeviation="3.39326"/>
<feComposite in2="SourceAlpha" operator="in" result="effect1_backgroundBlur_48_5379"/>
<feBlend mode="normal" in="SourceGraphic" in2="effect1_backgroundBlur_48_5379" result="shape"/>
<feColorMatrix in="SourceAlpha" type="matrix" values="0 0 0 0 0 0 0 0 0 0 0 0 0 0 0 0 0 0 127 0" result="hardAlpha"/>
<feOffset dy="1.69663"/>
<feGaussianBlur stdDeviation="3.39326"/>
<feComposite in2="hardAlpha" operator="arithmetic" k2="-1" k3="1"/>
<feColorMatrix type="matrix" values="0 0 0 0 1 0 0 0 0 1 0 0 0 0 1 0 0 0 0.3 0"/>
<feBlend mode="normal" in2="shape" result="effect2_innerShadow_48_5379"/>
<feColorMatrix in="SourceAlpha" type="matrix" values="0 0 0 0 0 0 0 0 0 0 0 0 0 0 0 0 0 0 127 0" result="hardAlpha"/>
<feOffset dy="-1.69663"/>
<feGaussianBlur stdDeviation="3.39326"/>
<feComposite in2="hardAlpha" operator="arithmetic" k2="-1" k3="1"/>
<feColorMatrix type="matrix" values="0 0 0 0 1 0 0 0 0 1 0 0 0 0 1 0 0 0 0.5 0"/>
<feBlend mode="normal" in2="effect2_innerShadow_48_5379" result="effect3_innerShadow_48_5379"/>
<feColorMatrix in="SourceAlpha" type="matrix" values="0 0 0 0 0 0 0 0 0 0 0 0 0 0 0 0 0 0 127 0" result="hardAlpha"/>
<feOffset dy="1.69663"/>
<feGaussianBlur stdDeviation="0.848314"/>
<feComposite in2="hardAlpha" operator="arithmetic" k2="-1" k3="1"/>
<feColorMatrix type="matrix" values="0 0 0 0 1 0 0 0 0 1 0 0 0 0 1 0 0 0 0.95 0"/>
<feBlend mode="normal" in2="effect3_innerShadow_48_5379" result="effect4_innerShadow_48_5379"/>
</filter>
<filter id="filter4_f_48_5379" x="289.854" y="218.146" width="18.9433" height="18.9433" filterUnits="userSpaceOnUse" color-interpolation-filters="sRGB">
<feFlood flood-opacity="0" result="BackgroundImageFix"/>
<feBlend mode="normal" in="SourceGraphic" in2="BackgroundImageFix" result="shape"/>
<feGaussianBlur stdDeviation="2.70586" result="effect1_foregroundBlur_48_5379"/>
</filter>
<filter id="filter5_biii_48_5379" x="288.897" y="215.485" width="21.6929" height="21.6928" filterUnits="userSpaceOnUse" color-interpolation-filters="sRGB">
<feFlood flood-opacity="0" result="BackgroundImageFix"/>
<feGaussianBlur in="BackgroundImageFix" stdDeviation="3.39326"/>
<feComposite in2="SourceAlpha" operator="in" result="effect1_backgroundBlur_48_5379"/>
<feBlend mode="normal" in="SourceGraphic" in2="effect1_backgroundBlur_48_5379" result="shape"/>
<feColorMatrix in="SourceAlpha" type="matrix" values="0 0 0 0 0 0 0 0 0 0 0 0 0 0 0 0 0 0 127 0" result="hardAlpha"/>
<feOffset dy="1.69663"/>
<feGaussianBlur stdDeviation="3.39326"/>
<feComposite in2="hardAlpha" operator="arithmetic" k2="-1" k3="1"/>
<feColorMatrix type="matrix" values="0 0 0 0 1 0 0 0 0 1 0 0 0 0 1 0 0 0 0.3 0"/>
<feBlend mode="normal" in2="shape" result="effect2_innerShadow_48_5379"/>
<feColorMatrix in="SourceAlpha" type="matrix" values="0 0 0 0 0 0 0 0 0 0 0 0 0 0 0 0 0 0 127 0" result="hardAlpha"/>
<feOffset dy="-1.69663"/>
<feGaussianBlur stdDeviation="3.39326"/>
<feComposite in2="hardAlpha" operator="arithmetic" k2="-1" k3="1"/>
<feColorMatrix type="matrix" values="0 0 0 0 1 0 0 0 0 1 0 0 0 0 1 0 0 0 0.5 0"/>
<feBlend mode="normal" in2="effect2_innerShadow_48_5379" result="effect3_innerShadow_48_5379"/>
<feColorMatrix in="SourceAlpha" type="matrix" values="0 0 0 0 0 0 0 0 0 0 0 0 0 0 0 0 0 0 127 0" result="hardAlpha"/>
<feOffset dy="1.69663"/>
<feGaussianBlur stdDeviation="0.848314"/>
<feComposite in2="hardAlpha" operator="arithmetic" k2="-1" k3="1"/>
<feColorMatrix type="matrix" values="0 0 0 0 1 0 0 0 0 1 0 0 0 0 1 0 0 0 0.95 0"/>
<feBlend mode="normal" in2="effect3_innerShadow_48_5379" result="effect4_innerShadow_48_5379"/>
</filter>
<filter id="filter6_f_48_5379" x="249.86" y="192.316" width="45.98" height="27.7929" filterUnits="userSpaceOnUse" color-interpolation-filters="sRGB">
<feFlood flood-opacity="0" result="BackgroundImageFix"/>
<feBlend mode="normal" in="SourceGraphic" in2="BackgroundImageFix" result="shape"/>
<feGaussianBlur stdDeviation="2.70586" result="effect1_foregroundBlur_48_5379"/>
</filter>
<filter id="filter7_biii_48_5379" x="249.321" y="188.368" width="48.7295" height="30.5425" filterUnits="userSpaceOnUse" color-interpolation-filters="sRGB">
<feFlood flood-opacity="0" result="BackgroundImageFix"/>
<feGaussianBlur in="BackgroundImageFix" stdDeviation="3.39326"/>
<feComposite in2="SourceAlpha" operator="in" result="effect1_backgroundBlur_48_5379"/>
<feBlend mode="normal" in="SourceGraphic" in2="effect1_backgroundBlur_48_5379" result="shape"/>
<feColorMatrix in="SourceAlpha" type="matrix" values="0 0 0 0 0 0 0 0 0 0 0 0 0 0 0 0 0 0 127 0" result="hardAlpha"/>
<feOffset dy="1.69663"/>
<feGaussianBlur stdDeviation="3.39326"/>
<feComposite in2="hardAlpha" operator="arithmetic" k2="-1" k3="1"/>
<feColorMatrix type="matrix" values="0 0 0 0 1 0 0 0 0 1 0 0 0 0 1 0 0 0 0.3 0"/>
<feBlend mode="normal" in2="shape" result="effect2_innerShadow_48_5379"/>
<feColorMatrix in="SourceAlpha" type="matrix" values="0 0 0 0 0 0 0 0 0 0 0 0 0 0 0 0 0 0 127 0" result="hardAlpha"/>
<feOffset dy="-1.69663"/>
<feGaussianBlur stdDeviation="3.39326"/>
<feComposite in2="hardAlpha" operator="arithmetic" k2="-1" k3="1"/>
<feColorMatrix type="matrix" values="0 0 0 0 1 0 0 0 0 1 0 0 0 0 1 0 0 0 0.5 0"/>
<feBlend mode="normal" in2="effect2_innerShadow_48_5379" result="effect3_innerShadow_48_5379"/>
<feColorMatrix in="SourceAlpha" type="matrix" values="0 0 0 0 0 0 0 0 0 0 0 0 0 0 0 0 0 0 127 0" result="hardAlpha"/>
<feOffset dy="1.69663"/>
<feGaussianBlur stdDeviation="0.848314"/>
<feComposite in2="hardAlpha" operator="arithmetic" k2="-1" k3="1"/>
<feColorMatrix type="matrix" values="0 0 0 0 1 0 0 0 0 1 0 0 0 0 1 0 0 0 0.95 0"/>
<feBlend mode="normal" in2="effect3_innerShadow_48_5379" result="effect4_innerShadow_48_5379"/>
</filter>
<filter id="filter8_biii_48_5379" x="226.777" y="206.894" width="29.4933" height="29.4853" filterUnits="userSpaceOnUse" color-interpolation-filters="sRGB">
<feFlood flood-opacity="0" result="BackgroundImageFix"/>
<feGaussianBlur in="BackgroundImageFix" stdDeviation="0.837537"/>
<feComposite in2="SourceAlpha" operator="in" result="effect1_backgroundBlur_48_5379"/>
<feBlend mode="normal" in="SourceGraphic" in2="effect1_backgroundBlur_48_5379" result="shape"/>
<feColorMatrix in="SourceAlpha" type="matrix" values="0 0 0 0 0 0 0 0 0 0 0 0 0 0 0 0 0 0 127 0" result="hardAlpha"/>
<feOffset dy="0.418769"/>
<feGaussianBlur stdDeviation="0.837537"/>
<feComposite in2="hardAlpha" operator="arithmetic" k2="-1" k3="1"/>
<feColorMatrix type="matrix" values="0 0 0 0 1 0 0 0 0 1 0 0 0 0 1 0 0 0 0.3 0"/>
<feBlend mode="normal" in2="shape" result="effect2_innerShadow_48_5379"/>
<feColorMatrix in="SourceAlpha" type="matrix" values="0 0 0 0 0 0 0 0 0 0 0 0 0 0 0 0 0 0 127 0" result="hardAlpha"/>
<feOffset dy="-0.418769"/>
<feGaussianBlur stdDeviation="0.837537"/>
<feComposite in2="hardAlpha" operator="arithmetic" k2="-1" k3="1"/>
<feColorMatrix type="matrix" values="0 0 0 0 1 0 0 0 0 1 0 0 0 0 1 0 0 0 0.5 0"/>
<feBlend mode="normal" in2="effect2_innerShadow_48_5379" result="effect3_innerShadow_48_5379"/>
<feColorMatrix in="SourceAlpha" type="matrix" values="0 0 0 0 0 0 0 0 0 0 0 0 0 0 0 0 0 0 127 0" result="hardAlpha"/>
<feOffset dy="0.418769"/>
<feGaussianBlur stdDeviation="0.209384"/>
<feComposite in2="hardAlpha" operator="arithmetic" k2="-1" k3="1"/>
<feColorMatrix type="matrix" values="0 0 0 0 1 0 0 0 0 1 0 0 0 0 1 0 0 0 0.95 0"/>
<feBlend mode="normal" in2="effect3_innerShadow_48_5379" result="effect4_innerShadow_48_5379"/>
</filter>
<linearGradient id="paint0_linear_48_5379" x1="255.362" y1="200.289" x2="293.108" y2="165.176" gradientUnits="userSpaceOnUse">
<stop stop-color="#FE6433"/>
<stop offset="1" stop-color="#F03280"/>
</linearGradient>
</defs>
</svg>
