<svg width="209" height="173" viewBox="0 0 209 173" fill="none" xmlns="http://www.w3.org/2000/svg">
<path d="M93.6912 63.5779V67.2345H85.0182L84.2023 71.8278C85.1895 70.8407 86.4889 70.3471 88.1006 70.3471C90.1354 70.3471 91.7673 70.9817 92.9962 72.2509C94.2251 73.5201 94.8396 75.1923 94.8396 77.2674C94.8396 79.4835 94.0942 81.3067 92.6033 82.7371C91.1125 84.1675 89.1986 84.8827 86.8616 84.8827C84.6455 84.8827 82.8324 84.3186 81.4221 83.1904C80.032 82.042 79.2765 80.4102 79.1557 78.2948H83.3864C83.4871 79.2215 83.8498 79.977 84.4743 80.5613C85.119 81.1254 85.9148 81.4074 86.8616 81.4074C87.9294 81.4074 88.8058 81.0347 89.4907 80.2893C90.1757 79.5237 90.5182 78.5466 90.5182 77.358C90.5182 76.1694 90.1858 75.2225 89.521 74.5174C88.8561 73.8123 87.9596 73.4597 86.8314 73.4597C85.4816 73.4597 84.4239 74.0439 83.6584 75.2124H79.8205L81.8754 63.5779H93.6912ZM96.4915 79.2316H100.571C100.914 80.8433 101.881 81.6492 103.472 81.6492C104.218 81.6492 104.842 81.4477 105.346 81.0448C105.87 80.6419 106.262 80.0778 106.524 79.3525C106.786 78.6272 106.978 77.9725 107.099 77.3882C107.219 76.7838 107.31 76.0888 107.371 75.3031C106.222 76.9349 104.711 77.7509 102.838 77.7509C100.883 77.7509 99.2717 77.0961 98.0025 75.7866C96.7534 74.4771 96.1289 72.8049 96.1289 70.7702C96.1289 68.6145 96.8541 66.8215 98.3047 65.3911C99.7552 63.9405 101.568 63.2153 103.744 63.2153C105.154 63.2153 106.383 63.5175 107.431 64.1219C108.499 64.7061 109.325 65.5019 109.909 66.5092C110.493 67.5165 110.926 68.6044 111.208 69.7729C111.49 70.9414 111.631 72.1905 111.631 73.5201C111.631 74.8901 111.49 76.2097 111.208 77.4789C110.926 78.7481 110.483 79.9569 109.879 81.1052C109.295 82.2536 108.448 83.1803 107.34 83.8854C106.232 84.5704 104.943 84.9129 103.472 84.9129C101.538 84.9129 99.9466 84.3992 98.6975 83.3717C97.4485 82.3442 96.7131 80.9642 96.4915 79.2316ZM103.654 66.751C102.707 66.751 101.911 67.1237 101.266 67.8691C100.642 68.5943 100.329 69.511 100.329 70.6191C100.329 71.7473 100.642 72.674 101.266 73.3993C101.891 74.1245 102.697 74.4872 103.684 74.4872C104.651 74.4872 105.447 74.1245 106.071 73.3993C106.716 72.674 107.038 71.7573 107.038 70.6493C107.038 69.5412 106.716 68.6145 106.071 67.8691C105.426 67.1237 104.621 66.751 103.654 66.751ZM127.275 63.5779V67.2345H118.602L117.786 71.8278C118.773 70.8407 120.073 70.3471 121.684 70.3471C123.719 70.3471 125.351 70.9817 126.58 72.2509C127.809 73.5201 128.423 75.1923 128.423 77.2674C128.423 79.4835 127.678 81.3067 126.187 82.7371C124.696 84.1675 122.782 84.8827 120.445 84.8827C118.229 84.8827 116.416 84.3186 115.006 83.1904C113.616 82.042 112.86 80.4102 112.739 78.2948H116.97C117.071 79.2215 117.434 79.977 118.058 80.5613C118.703 81.1254 119.499 81.4074 120.445 81.4074C121.513 81.4074 122.39 81.0347 123.075 80.2893C123.76 79.5237 124.102 78.5466 124.102 77.358C124.102 76.1694 123.77 75.2225 123.105 74.5174C122.44 73.8123 121.543 73.4597 120.415 73.4597C119.065 73.4597 118.008 74.0439 117.242 75.2124H113.404L115.459 63.5779H127.275Z" fill="#0B1324"/>
<path d="M95.3768 97.0782V98.1208C95.9006 97.2746 96.7467 96.8516 97.9152 96.8516C98.9931 96.8516 99.8543 97.2293 100.499 97.9848C101.144 98.7403 101.466 99.7476 101.466 101.007C101.466 102.236 101.149 103.223 100.514 103.968C99.8896 104.704 99.0535 105.071 98.0059 105.071C96.8978 105.071 96.0517 104.663 95.4675 103.847V107.761H93.76V97.0782H95.3768ZM97.5677 98.2416C96.8928 98.2416 96.364 98.4834 95.9812 98.9669C95.5984 99.4504 95.407 100.12 95.407 100.977C95.407 101.823 95.5984 102.487 95.9812 102.971C96.374 103.455 96.913 103.696 97.5979 103.696C98.2527 103.696 98.7715 103.455 99.1542 102.971C99.537 102.487 99.7284 101.833 99.7284 101.007C99.7284 100.161 99.532 99.4907 99.1391 98.9971C98.7563 98.4935 98.2325 98.2416 97.5677 98.2416ZM106.775 97.0782V98.3323H105.203V102.442C105.203 102.684 105.208 102.855 105.218 102.956C105.228 103.047 105.258 103.152 105.309 103.273C105.359 103.384 105.445 103.46 105.566 103.5C105.697 103.54 105.873 103.56 106.095 103.56C106.377 103.56 106.603 103.55 106.775 103.53V104.89C106.432 104.93 106.044 104.95 105.611 104.95C105.309 104.95 105.042 104.925 104.81 104.875C104.589 104.835 104.402 104.784 104.251 104.724C104.1 104.663 103.974 104.563 103.873 104.422C103.773 104.27 103.692 104.15 103.632 104.059C103.581 103.958 103.541 103.787 103.511 103.545C103.491 103.303 103.481 103.122 103.481 103.001C103.481 102.87 103.481 102.649 103.481 102.336C103.481 102.296 103.481 102.266 103.481 102.246C103.481 102.216 103.481 102.185 103.481 102.155C103.481 102.115 103.481 102.08 103.481 102.049V98.3323H102.181V97.0782H103.481V94.7362H105.203V97.0782H106.775ZM114.178 99.3447H112.531C112.431 98.5187 111.867 98.1057 110.839 98.1057C110.396 98.1057 110.053 98.1862 109.812 98.3474C109.57 98.5086 109.449 98.7302 109.449 99.0122C109.449 99.1029 109.454 99.1835 109.464 99.254C109.484 99.3245 109.515 99.39 109.555 99.4504C109.605 99.5008 109.645 99.5461 109.676 99.5864C109.716 99.6267 109.781 99.667 109.872 99.7073C109.963 99.7476 110.033 99.7828 110.084 99.8131C110.144 99.8332 110.24 99.8634 110.371 99.9037C110.502 99.9339 110.602 99.9591 110.673 99.9793C110.754 99.9994 110.879 100.03 111.051 100.07C111.222 100.1 111.353 100.125 111.444 100.145C111.836 100.236 112.118 100.307 112.29 100.357C112.471 100.397 112.728 100.488 113.06 100.629C113.403 100.76 113.655 100.901 113.816 101.052C113.977 101.193 114.123 101.395 114.254 101.656C114.395 101.908 114.465 102.2 114.465 102.533C114.465 103.319 114.158 103.943 113.544 104.406C112.929 104.87 112.103 105.101 111.066 105.101C109.958 105.101 109.107 104.87 108.512 104.406C107.918 103.943 107.601 103.268 107.56 102.382H109.207C109.298 103.359 109.928 103.847 111.096 103.847C111.6 103.847 112.003 103.747 112.305 103.545C112.617 103.334 112.773 103.057 112.773 102.714C112.773 102.543 112.733 102.397 112.652 102.276C112.582 102.155 112.461 102.054 112.29 101.974C112.118 101.883 111.952 101.818 111.791 101.777C111.64 101.727 111.433 101.672 111.172 101.611C111.131 101.601 111.101 101.596 111.081 101.596C111.061 101.586 111.036 101.581 111.005 101.581C110.975 101.571 110.945 101.561 110.915 101.551C109.807 101.279 109.102 101.067 108.799 100.916C108.084 100.574 107.727 100.004 107.727 99.2087C107.727 98.4733 108.009 97.8992 108.573 97.4862C109.137 97.0631 109.917 96.8516 110.915 96.8516C111.872 96.8516 112.652 97.0581 113.257 97.4711C113.871 97.8841 114.178 98.5086 114.178 99.3447Z" fill="#0B1324"/>
<path d="M53.6751 155.314C41.0244 144.009 32.7729 128.6 30.3767 111.805C27.9805 95.0093 31.5936 77.9073 40.5785 63.5164C49.5633 49.1254 63.3425 38.3705 79.4845 33.1493C95.6265 27.9281 113.094 28.5762 128.805 34.9793C144.516 41.3823 157.46 53.1288 165.353 68.1459C173.247 83.1631 175.583 100.486 171.949 117.057C168.315 133.629 158.944 148.385 145.49 158.72" stroke="#FF4343" stroke-width="10.4606" stroke-linecap="round"/>
<path d="M171.949 117.057C168.315 133.629 158.944 148.384 145.491 158.72" stroke="#1DB04D" stroke-width="10.4606" stroke-linecap="round"/>
<path d="M165.353 68.1459C173.247 83.1631 175.583 100.486 171.949 117.057" stroke="#ACE465" stroke-width="10.4606" stroke-linecap="round"/>
<path d="M128.805 34.9792C144.516 41.3822 157.46 53.1287 165.354 68.1459" stroke="#FFCA43" stroke-width="10.4606" stroke-linecap="round"/>
<path d="M79.4854 33.1493C95.6274 27.9281 113.095 28.5762 128.806 34.9792" stroke="#FF7B43" stroke-width="10.4606" stroke-linecap="round"/>
<rect x="139.844" y="38.8856" width="22.0835" height="22.0835" rx="11.0418" fill="#F6F9FC"/>
<rect x="139.844" y="38.8856" width="22.0835" height="22.0835" rx="11.0418" stroke="#FFCA43" stroke-width="1.16229"/>
<g clip-path="url(#clip0_267_4623)">
<path d="M146.045 48.067C147.227 45.7038 149.772 44.8182 151.505 44.0716C152.293 43.7323 152.488 45.0108 152.171 45.8029C151.905 46.4688 151.372 47.2154 151.372 47.2154H153.636C153.883 47.2154 154.12 47.3136 154.295 47.4885C154.47 47.6633 154.568 47.9004 154.568 48.1477C154.568 48.3949 154.47 48.632 154.295 48.8069C154.12 48.9817 153.883 49.0799 153.636 49.0799H154.169C154.416 49.0799 154.653 49.1781 154.828 49.353C155.003 49.5278 155.101 49.7649 155.101 50.0122C155.101 50.2594 155.003 50.4966 154.828 50.6714C154.653 50.8462 154.416 50.9444 154.169 50.9444H153.103C153.351 50.9444 153.588 51.0427 153.763 51.2175C153.937 51.3923 154.036 51.6294 154.036 51.8767C154.036 52.1239 153.937 52.3611 153.763 52.5359C153.588 52.7107 153.351 52.8089 153.103 52.8089H152.304C152.552 52.8089 152.789 52.907 152.964 53.0818C153.138 53.2566 153.237 53.4937 153.237 53.7409C153.237 53.9882 153.139 54.2253 152.964 54.4002C152.789 54.5751 152.552 54.6734 152.305 54.6734H148.975C148.043 54.6734 146.844 54.1932 146.045 52.8614C145.279 51.5848 145.246 49.6651 146.045 48.067Z" stroke="#FFCA43" stroke-width="1.34581" stroke-linecap="round" stroke-linejoin="round"/>
</g>
<path d="M9.78099 154.809C9.81121 153.701 10.1184 152.845 10.7027 152.24C11.297 151.636 12.123 151.334 13.1807 151.334C14.1276 151.334 14.8881 151.591 15.4623 152.104C16.0364 152.618 16.3235 153.293 16.3235 154.129C16.3235 154.633 16.1926 155.086 15.9307 155.489C15.6788 155.882 15.3212 156.174 14.8579 156.365C15.4623 156.506 15.9407 156.809 16.2933 157.272C16.6459 157.735 16.8221 158.294 16.8221 158.949C16.8322 159.936 16.4897 160.737 15.7947 161.352C15.1097 161.956 14.2182 162.258 13.1202 162.258C12.0323 162.258 11.161 161.961 10.5063 161.367C9.86157 160.762 9.53923 159.951 9.53923 158.934V158.738H10.8085C10.8387 159.503 11.0552 160.092 11.4582 160.505C11.8611 160.918 12.4202 161.125 13.1354 161.125C13.8203 161.125 14.3744 160.933 14.7974 160.551C15.2306 160.158 15.4471 159.654 15.4471 159.04C15.4471 158.415 15.2306 157.917 14.7974 157.544C14.3744 157.171 13.8002 156.985 13.0749 156.985C12.8936 156.985 12.6619 157.005 12.3799 157.045V155.957C12.5209 155.967 12.667 155.972 12.818 155.972C13.4829 155.972 14.0067 155.816 14.3895 155.504C14.7823 155.182 14.9787 154.749 14.9787 154.205C14.9787 153.681 14.8075 153.258 14.465 152.935C14.1326 152.613 13.6843 152.452 13.1202 152.452C12.4756 152.452 11.9719 152.658 11.6093 153.071C11.2466 153.474 11.0552 154.053 11.0351 154.809H9.78099ZM21.6673 151.334C22.312 151.334 22.861 151.455 23.3143 151.696C23.7776 151.928 24.1302 152.215 24.3719 152.558C24.6137 152.9 24.8051 153.348 24.9461 153.902C25.0871 154.446 25.1728 154.94 25.203 155.383C25.2332 155.816 25.2483 156.34 25.2483 156.955C25.2483 157.519 25.2231 158.027 25.1728 158.481C25.1325 158.934 25.0368 159.407 24.8857 159.901C24.7446 160.395 24.5482 160.808 24.2964 161.14C24.0446 161.462 23.7021 161.729 23.2689 161.941C22.8358 162.152 22.3221 162.258 21.7277 162.258C21.1032 162.258 20.5592 162.152 20.0959 161.941C19.6426 161.719 19.29 161.447 19.0382 161.125C18.7864 160.803 18.5849 160.395 18.4338 159.901C18.2928 159.397 18.2021 158.924 18.1618 158.481C18.1215 158.027 18.1014 157.509 18.1014 156.924C18.1014 156.421 18.1115 155.983 18.1316 155.61C18.1618 155.237 18.2122 154.819 18.2827 154.356C18.3633 153.882 18.4842 153.484 18.6453 153.162C18.8065 152.83 19.013 152.517 19.2648 152.225C19.5167 151.933 19.844 151.711 20.247 151.56C20.66 151.409 21.1334 151.334 21.6673 151.334ZM22.4983 152.663C22.2566 152.543 21.9796 152.482 21.6673 152.482C21.355 152.482 21.078 152.543 20.8363 152.663C20.5945 152.774 20.3981 152.905 20.247 153.056C20.0959 153.207 19.9649 153.434 19.8541 153.736C19.7433 154.028 19.6627 154.275 19.6124 154.477C19.5721 154.678 19.5368 154.97 19.5066 155.353C19.4764 155.726 19.4613 155.993 19.4613 156.154C19.4613 156.305 19.4613 156.562 19.4613 156.924C19.4613 157.277 19.4663 157.569 19.4764 157.801C19.4865 158.032 19.5116 158.335 19.5519 158.707C19.5922 159.08 19.6627 159.392 19.7635 159.644C19.8642 159.886 19.9901 160.133 20.1412 160.384C20.2923 160.626 20.4988 160.813 20.7607 160.944C21.0327 161.064 21.345 161.125 21.6975 161.125C21.9997 161.125 22.2666 161.069 22.4983 160.959C22.7401 160.848 22.9365 160.717 23.0876 160.566C23.2387 160.415 23.3646 160.203 23.4654 159.931C23.5762 159.649 23.6567 159.407 23.7071 159.206C23.7575 158.994 23.7927 158.717 23.8129 158.375C23.8431 158.022 23.8582 157.765 23.8582 157.604C23.8683 157.433 23.8733 157.186 23.8733 156.864C23.8733 156.511 23.8733 156.26 23.8733 156.108C23.8733 155.957 23.8582 155.695 23.828 155.323C23.7978 154.95 23.7575 154.663 23.7071 154.461C23.6668 154.26 23.5913 154.013 23.4805 153.721C23.3697 153.429 23.2387 153.207 23.0876 153.056C22.9365 152.905 22.7401 152.774 22.4983 152.663ZM30.0632 151.334C30.7079 151.334 31.2569 151.455 31.7102 151.696C32.1736 151.928 32.5261 152.215 32.7679 152.558C33.0097 152.9 33.201 153.348 33.3421 153.902C33.4831 154.446 33.5687 154.94 33.5989 155.383C33.6292 155.816 33.6443 156.34 33.6443 156.955C33.6443 157.519 33.6191 158.027 33.5687 158.481C33.5284 158.934 33.4327 159.407 33.2816 159.901C33.1406 160.395 32.9442 160.808 32.6923 161.14C32.4405 161.462 32.098 161.729 31.6649 161.941C31.2317 162.152 30.718 162.258 30.1237 162.258C29.4991 162.258 28.9552 162.152 28.4918 161.941C28.0385 161.719 27.686 161.447 27.4341 161.125C27.1823 160.803 26.9809 160.395 26.8298 159.901C26.6887 159.397 26.5981 158.924 26.5578 158.481C26.5175 158.027 26.4973 157.509 26.4973 156.924C26.4973 156.421 26.5074 155.983 26.5276 155.61C26.5578 155.237 26.6081 154.819 26.6787 154.356C26.7592 153.882 26.8801 153.484 27.0413 153.162C27.2025 152.83 27.409 152.517 27.6608 152.225C27.9126 151.933 28.24 151.711 28.6429 151.56C29.0559 151.409 29.5294 151.334 30.0632 151.334ZM30.8943 152.663C30.6525 152.543 30.3755 152.482 30.0632 152.482C29.751 152.482 29.474 152.543 29.2322 152.663C28.9905 152.774 28.794 152.905 28.6429 153.056C28.4918 153.207 28.3609 153.434 28.2501 153.736C28.1393 154.028 28.0587 154.275 28.0083 154.477C27.968 154.678 27.9328 154.97 27.9026 155.353C27.8723 155.726 27.8572 155.993 27.8572 156.154C27.8572 156.305 27.8572 156.562 27.8572 156.924C27.8572 157.277 27.8623 157.569 27.8723 157.801C27.8824 158.032 27.9076 158.335 27.9479 158.707C27.9882 159.08 28.0587 159.392 28.1594 159.644C28.2601 159.886 28.3861 160.133 28.5372 160.384C28.6883 160.626 28.8948 160.813 29.1567 160.944C29.4286 161.064 29.7409 161.125 30.0935 161.125C30.3957 161.125 30.6626 161.069 30.8943 160.959C31.136 160.848 31.3325 160.717 31.4836 160.566C31.6347 160.415 31.7606 160.203 31.8613 159.931C31.9721 159.649 32.0527 159.407 32.1031 159.206C32.1534 158.994 32.1887 158.717 32.2088 158.375C32.2391 158.022 32.2542 157.765 32.2542 157.604C32.2642 157.433 32.2693 157.186 32.2693 156.864C32.2693 156.511 32.2693 156.26 32.2693 156.108C32.2693 155.957 32.2542 155.695 32.2239 155.323C32.1937 154.95 32.1534 154.663 32.1031 154.461C32.0628 154.26 31.9872 154.013 31.8764 153.721C31.7656 153.429 31.6347 153.207 31.4836 153.056C31.3325 152.905 31.136 152.774 30.8943 152.663Z" fill="#8A8A8A"/>
<path d="M170.812 156.32C170.339 156.118 169.971 155.826 169.709 155.444C169.458 155.051 169.332 154.592 169.332 154.069C169.332 153.263 169.629 152.608 170.223 152.104C170.817 151.591 171.583 151.334 172.52 151.334C173.447 151.334 174.202 151.586 174.786 152.089C175.381 152.583 175.678 153.222 175.678 154.008C175.678 155.096 175.189 155.867 174.212 156.32C175.471 156.763 176.101 157.634 176.101 158.934C176.101 159.951 175.773 160.762 175.119 161.367C174.464 161.961 173.583 162.258 172.475 162.258C171.407 162.258 170.546 161.966 169.891 161.382C169.246 160.787 168.924 160.002 168.924 159.025C168.924 158.38 169.085 157.826 169.407 157.362C169.74 156.889 170.208 156.542 170.812 156.32ZM173.865 152.935C173.532 152.633 173.084 152.482 172.52 152.482C171.956 152.482 171.502 152.638 171.16 152.95C170.817 153.253 170.646 153.656 170.646 154.159C170.646 154.663 170.817 155.071 171.16 155.383C171.502 155.685 171.956 155.836 172.52 155.836C173.074 155.836 173.517 155.685 173.85 155.383C174.192 155.071 174.363 154.663 174.363 154.159C174.363 153.645 174.197 153.238 173.865 152.935ZM172.475 156.879C171.83 156.879 171.301 157.08 170.888 157.483C170.475 157.876 170.268 158.38 170.268 158.994C170.268 159.629 170.475 160.153 170.888 160.566C171.311 160.969 171.85 161.17 172.505 161.17C173.17 161.17 173.708 160.969 174.121 160.566C174.545 160.163 174.756 159.644 174.756 159.009C174.756 158.375 174.545 157.861 174.121 157.468C173.698 157.075 173.149 156.879 172.475 156.879ZM183.832 151.53V152.663H179.495L178.861 155.852C179.385 155.287 180.105 155.005 181.022 155.005C182.029 155.005 182.845 155.333 183.469 155.987C184.094 156.632 184.406 157.473 184.406 158.511C184.406 159.599 184.064 160.495 183.379 161.2C182.694 161.905 181.802 162.258 180.704 162.258C179.687 162.258 178.861 161.976 178.226 161.412C177.602 160.848 177.274 160.097 177.244 159.161H178.544C178.594 159.755 178.821 160.238 179.224 160.611C179.626 160.984 180.125 161.17 180.719 161.17C181.384 161.17 181.938 160.928 182.381 160.445C182.825 159.961 183.046 159.362 183.046 158.647C183.046 157.901 182.83 157.297 182.397 156.834C181.963 156.36 181.399 156.123 180.704 156.123C179.818 156.123 179.133 156.471 178.649 157.166L177.546 157.091L178.544 151.53H183.832ZM189.297 151.334C189.941 151.334 190.49 151.455 190.944 151.696C191.407 151.928 191.76 152.215 192.001 152.558C192.243 152.9 192.434 153.348 192.575 153.902C192.716 154.446 192.802 154.94 192.832 155.383C192.863 155.816 192.878 156.34 192.878 156.955C192.878 157.519 192.852 158.027 192.802 158.481C192.762 158.934 192.666 159.407 192.515 159.901C192.374 160.395 192.178 160.808 191.926 161.14C191.674 161.462 191.331 161.729 190.898 161.941C190.465 162.152 189.951 162.258 189.357 162.258C188.733 162.258 188.189 162.152 187.725 161.941C187.272 161.719 186.919 161.447 186.668 161.125C186.416 160.802 186.214 160.395 186.063 159.901C185.922 159.397 185.831 158.924 185.791 158.481C185.751 158.027 185.731 157.509 185.731 156.924C185.731 156.421 185.741 155.982 185.761 155.61C185.791 155.237 185.842 154.819 185.912 154.356C185.993 153.882 186.114 153.484 186.275 153.162C186.436 152.83 186.642 152.517 186.894 152.225C187.146 151.933 187.473 151.711 187.876 151.56C188.289 151.409 188.763 151.334 189.297 151.334ZM190.128 152.663C189.886 152.542 189.609 152.482 189.297 152.482C188.984 152.482 188.707 152.542 188.466 152.663C188.224 152.774 188.027 152.905 187.876 153.056C187.725 153.207 187.594 153.434 187.483 153.736C187.373 154.028 187.292 154.275 187.242 154.477C187.201 154.678 187.166 154.97 187.136 155.353C187.106 155.726 187.091 155.993 187.091 156.154C187.091 156.305 187.091 156.562 187.091 156.924C187.091 157.277 187.096 157.569 187.106 157.801C187.116 158.032 187.141 158.335 187.181 158.707C187.222 159.08 187.292 159.392 187.393 159.644C187.494 159.886 187.619 160.133 187.771 160.384C187.922 160.626 188.128 160.813 188.39 160.943C188.662 161.064 188.974 161.125 189.327 161.125C189.629 161.125 189.896 161.069 190.128 160.959C190.369 160.848 190.566 160.717 190.717 160.566C190.868 160.415 190.994 160.203 191.095 159.931C191.206 159.649 191.286 159.407 191.336 159.206C191.387 158.994 191.422 158.717 191.442 158.375C191.472 158.022 191.488 157.765 191.488 157.604C191.498 157.433 191.503 157.186 191.503 156.864C191.503 156.511 191.503 156.259 191.503 156.108C191.503 155.957 191.488 155.695 191.457 155.323C191.427 154.95 191.387 154.663 191.336 154.461C191.296 154.26 191.221 154.013 191.11 153.721C190.999 153.429 190.868 153.207 190.717 153.056C190.566 152.905 190.369 152.774 190.128 152.663Z" fill="#8A8A8A"/>
<path d="M185.923 117.964C185.449 117.763 185.082 117.471 184.82 117.088C184.568 116.695 184.442 116.237 184.442 115.713C184.442 114.907 184.739 114.252 185.334 113.749C185.928 113.235 186.693 112.978 187.63 112.978C188.557 112.978 189.312 113.23 189.897 113.734C190.491 114.227 190.788 114.867 190.788 115.653C190.788 116.741 190.3 117.511 189.322 117.964C190.582 118.408 191.211 119.279 191.211 120.578C191.211 121.596 190.884 122.407 190.229 123.011C189.574 123.605 188.693 123.903 187.585 123.903C186.517 123.903 185.656 123.61 185.001 123.026C184.356 122.432 184.034 121.646 184.034 120.669C184.034 120.024 184.195 119.47 184.518 119.007C184.85 118.534 185.318 118.186 185.923 117.964ZM188.975 114.58C188.643 114.278 188.194 114.127 187.63 114.127C187.066 114.127 186.613 114.283 186.27 114.595C185.928 114.897 185.757 115.3 185.757 115.804C185.757 116.307 185.928 116.715 186.27 117.028C186.613 117.33 187.066 117.481 187.63 117.481C188.184 117.481 188.627 117.33 188.96 117.028C189.302 116.715 189.474 116.307 189.474 115.804C189.474 115.29 189.307 114.882 188.975 114.58ZM187.585 118.523C186.94 118.523 186.411 118.725 185.998 119.128C185.585 119.521 185.379 120.024 185.379 120.639C185.379 121.273 185.585 121.797 185.998 122.21C186.421 122.613 186.96 122.815 187.615 122.815C188.28 122.815 188.819 122.613 189.232 122.21C189.655 121.807 189.866 121.289 189.866 120.654C189.866 120.019 189.655 119.506 189.232 119.113C188.809 118.72 188.26 118.523 187.585 118.523ZM196.011 112.978C196.656 112.978 197.205 113.099 197.658 113.341C198.121 113.572 198.474 113.86 198.716 114.202C198.957 114.545 199.149 114.993 199.29 115.547C199.431 116.091 199.517 116.584 199.547 117.028C199.577 117.461 199.592 117.985 199.592 118.599C199.592 119.163 199.567 119.672 199.517 120.125C199.476 120.578 199.381 121.052 199.229 121.545C199.088 122.039 198.892 122.452 198.64 122.784C198.388 123.107 198.046 123.374 197.613 123.585C197.18 123.797 196.666 123.903 196.071 123.903C195.447 123.903 194.903 123.797 194.44 123.585C193.986 123.364 193.634 123.092 193.382 122.769C193.13 122.447 192.929 122.039 192.778 121.545C192.637 121.042 192.546 120.568 192.506 120.125C192.465 119.672 192.445 119.153 192.445 118.569C192.445 118.065 192.455 117.627 192.475 117.254C192.506 116.882 192.556 116.463 192.626 116C192.707 115.527 192.828 115.129 192.989 114.806C193.15 114.474 193.357 114.162 193.609 113.87C193.86 113.578 194.188 113.356 194.591 113.205C195.004 113.054 195.477 112.978 196.011 112.978ZM196.842 114.308C196.6 114.187 196.323 114.127 196.011 114.127C195.699 114.127 195.422 114.187 195.18 114.308C194.938 114.419 194.742 114.55 194.591 114.701C194.44 114.852 194.309 115.078 194.198 115.381C194.087 115.673 194.006 115.92 193.956 116.121C193.916 116.322 193.881 116.615 193.85 116.997C193.82 117.37 193.805 117.637 193.805 117.798C193.805 117.949 193.805 118.206 193.805 118.569C193.805 118.921 193.81 119.213 193.82 119.445C193.83 119.677 193.855 119.979 193.896 120.352C193.936 120.724 194.006 121.037 194.107 121.289C194.208 121.53 194.334 121.777 194.485 122.029C194.636 122.271 194.843 122.457 195.104 122.588C195.376 122.709 195.689 122.769 196.041 122.769C196.343 122.769 196.61 122.714 196.842 122.603C197.084 122.492 197.28 122.361 197.431 122.21C197.582 122.059 197.708 121.848 197.809 121.576C197.92 121.294 198 121.052 198.051 120.85C198.101 120.639 198.136 120.362 198.157 120.019C198.187 119.667 198.202 119.41 198.202 119.249C198.212 119.077 198.217 118.831 198.217 118.508C198.217 118.156 198.217 117.904 198.217 117.753C198.217 117.602 198.202 117.34 198.172 116.967C198.142 116.594 198.101 116.307 198.051 116.106C198.011 115.904 197.935 115.658 197.824 115.366C197.713 115.073 197.582 114.852 197.431 114.701C197.28 114.55 197.084 114.419 196.842 114.308ZM204.407 112.978C205.052 112.978 205.601 113.099 206.054 113.341C206.517 113.572 206.87 113.86 207.112 114.202C207.353 114.545 207.545 114.993 207.686 115.547C207.827 116.091 207.912 116.584 207.943 117.028C207.973 117.461 207.988 117.985 207.988 118.599C207.988 119.163 207.963 119.672 207.912 120.125C207.872 120.578 207.776 121.052 207.625 121.545C207.484 122.039 207.288 122.452 207.036 122.784C206.784 123.107 206.442 123.374 206.009 123.585C205.575 123.797 205.062 123.903 204.467 123.903C203.843 123.903 203.299 123.797 202.836 123.585C202.382 123.364 202.03 123.092 201.778 122.769C201.526 122.447 201.325 122.039 201.174 121.545C201.032 121.042 200.942 120.568 200.902 120.125C200.861 119.672 200.841 119.153 200.841 118.569C200.841 118.065 200.851 117.627 200.871 117.254C200.902 116.882 200.952 116.463 201.022 116C201.103 115.527 201.224 115.129 201.385 114.806C201.546 114.474 201.753 114.162 202.005 113.87C202.256 113.578 202.584 113.356 202.987 113.205C203.4 113.054 203.873 112.978 204.407 112.978ZM205.238 114.308C204.996 114.187 204.719 114.127 204.407 114.127C204.095 114.127 203.818 114.187 203.576 114.308C203.334 114.419 203.138 114.55 202.987 114.701C202.836 114.852 202.705 115.078 202.594 115.381C202.483 115.673 202.402 115.92 202.352 116.121C202.312 116.322 202.277 116.615 202.246 116.997C202.216 117.37 202.201 117.637 202.201 117.798C202.201 117.949 202.201 118.206 202.201 118.569C202.201 118.921 202.206 119.213 202.216 119.445C202.226 119.677 202.251 119.979 202.292 120.352C202.332 120.724 202.402 121.037 202.503 121.289C202.604 121.53 202.73 121.777 202.881 122.029C203.032 122.271 203.239 122.457 203.5 122.588C203.772 122.709 204.085 122.769 204.437 122.769C204.739 122.769 205.006 122.714 205.238 122.603C205.48 122.492 205.676 122.361 205.827 122.21C205.978 122.059 206.104 121.848 206.205 121.576C206.316 121.294 206.396 121.052 206.447 120.85C206.497 120.639 206.532 120.362 206.553 120.019C206.583 119.667 206.598 119.41 206.598 119.249C206.608 119.077 206.613 118.831 206.613 118.508C206.613 118.156 206.613 117.904 206.613 117.753C206.613 117.602 206.598 117.34 206.568 116.967C206.537 116.594 206.497 116.307 206.447 116.106C206.407 115.904 206.331 115.658 206.22 115.366C206.109 115.073 205.978 114.852 205.827 114.701C205.676 114.55 205.48 114.419 205.238 114.308Z" fill="#8A8A8A"/>
<path d="M185.233 53.8978V55.0008C182.897 57.6702 181.532 60.808 181.139 64.4142H179.718C179.839 62.7622 180.272 61.1253 181.018 59.5036C181.773 57.8818 182.74 56.4212 183.919 55.1217H178.313V53.8978H185.233ZM190.2 53.7014C190.844 53.7014 191.393 53.8223 191.846 54.064C192.31 54.2957 192.662 54.5828 192.904 54.9253C193.146 55.2678 193.337 55.716 193.478 56.2701C193.619 56.814 193.705 57.3076 193.735 57.7508C193.765 58.184 193.781 58.7078 193.781 59.3222C193.781 59.8863 193.755 60.395 193.705 60.8483C193.665 61.3016 193.569 61.7751 193.418 62.2686C193.277 62.7622 193.08 63.1752 192.829 63.5076C192.577 63.83 192.234 64.0969 191.801 64.3085C191.368 64.52 190.854 64.6258 190.26 64.6258C189.635 64.6258 189.091 64.52 188.628 64.3085C188.175 64.0869 187.822 63.8149 187.57 63.4925C187.319 63.1702 187.117 62.7622 186.966 62.2686C186.825 61.765 186.734 61.2915 186.694 60.8483C186.654 60.395 186.634 59.8763 186.634 59.292C186.634 58.7884 186.644 58.3502 186.664 57.9775C186.694 57.6048 186.744 57.1867 186.815 56.7234C186.896 56.2499 187.016 55.852 187.178 55.5297C187.339 55.1973 187.545 54.885 187.797 54.5929C188.049 54.3008 188.376 54.0792 188.779 53.9281C189.192 53.777 189.666 53.7014 190.2 53.7014ZM191.031 55.0311C190.789 54.9102 190.512 54.8498 190.2 54.8498C189.887 54.8498 189.61 54.9102 189.368 55.0311C189.127 55.1419 188.93 55.2728 188.779 55.4239C188.628 55.575 188.497 55.8017 188.386 56.1039C188.276 56.396 188.195 56.6428 188.145 56.8442C188.104 57.0457 188.069 57.3378 188.039 57.7206C188.009 58.0933 187.993 58.3603 187.993 58.5214C187.993 58.6725 187.993 58.9294 187.993 59.292C187.993 59.6446 187.999 59.9367 188.009 60.1684C188.019 60.4001 188.044 60.7023 188.084 61.075C188.124 61.4477 188.195 61.7599 188.296 62.0118C188.396 62.2535 188.522 62.5003 188.673 62.7522C188.825 62.9939 189.031 63.1803 189.293 63.3112C189.565 63.4321 189.877 63.4925 190.23 63.4925C190.532 63.4925 190.799 63.4371 191.031 63.3263C191.272 63.2155 191.469 63.0846 191.62 62.9335C191.771 62.7824 191.897 62.5708 191.998 62.2989C192.108 62.0168 192.189 61.7751 192.239 61.5736C192.29 61.3621 192.325 61.085 192.345 60.7426C192.375 60.39 192.39 60.1331 192.39 59.972C192.401 59.8007 192.406 59.5539 192.406 59.2316C192.406 58.879 192.406 58.6272 192.406 58.4761C192.406 58.325 192.39 58.0631 192.36 57.6904C192.33 57.3177 192.29 57.0306 192.239 56.8291C192.199 56.6277 192.123 56.3809 192.013 56.0888C191.902 55.7966 191.771 55.575 191.62 55.4239C191.469 55.2728 191.272 55.1419 191.031 55.0311ZM198.595 53.7014C199.24 53.7014 199.789 53.8223 200.242 54.064C200.706 54.2957 201.058 54.5828 201.3 54.9253C201.542 55.2678 201.733 55.716 201.874 56.2701C202.015 56.814 202.101 57.3076 202.131 57.7508C202.161 58.184 202.176 58.7078 202.176 59.3222C202.176 59.8863 202.151 60.395 202.101 60.8483C202.061 61.3016 201.965 61.7751 201.814 62.2686C201.673 62.7622 201.476 63.1752 201.225 63.5076C200.973 63.83 200.63 64.0969 200.197 64.3085C199.764 64.52 199.25 64.6258 198.656 64.6258C198.031 64.6258 197.487 64.52 197.024 64.3085C196.571 64.0869 196.218 63.8149 195.966 63.4925C195.715 63.1702 195.513 62.7622 195.362 62.2686C195.221 61.765 195.13 61.2915 195.09 60.8483C195.05 60.395 195.03 59.8763 195.03 59.292C195.03 58.7884 195.04 58.3502 195.06 57.9775C195.09 57.6048 195.14 57.1867 195.211 56.7234C195.291 56.2499 195.412 55.852 195.574 55.5297C195.735 55.1973 195.941 54.885 196.193 54.5929C196.445 54.3008 196.772 54.0792 197.175 53.9281C197.588 53.777 198.062 53.7014 198.595 53.7014ZM199.427 55.0311C199.185 54.9102 198.908 54.8498 198.595 54.8498C198.283 54.8498 198.006 54.9102 197.764 55.0311C197.523 55.1419 197.326 55.2728 197.175 55.4239C197.024 55.575 196.893 55.8017 196.782 56.1039C196.671 56.396 196.591 56.6428 196.541 56.8442C196.5 57.0457 196.465 57.3378 196.435 57.7206C196.405 58.0933 196.389 58.3603 196.389 58.5214C196.389 58.6725 196.389 58.9294 196.389 59.292C196.389 59.6446 196.394 59.9367 196.405 60.1684C196.415 60.4001 196.44 60.7023 196.48 61.075C196.52 61.4477 196.591 61.7599 196.692 62.0118C196.792 62.2535 196.918 62.5003 197.069 62.7522C197.22 62.9939 197.427 63.1803 197.689 63.3112C197.961 63.4321 198.273 63.4925 198.626 63.4925C198.928 63.4925 199.195 63.4371 199.427 63.3263C199.668 63.2155 199.865 63.0846 200.016 62.9335C200.167 62.7824 200.293 62.5708 200.394 62.2989C200.504 62.0168 200.585 61.7751 200.635 61.5736C200.686 61.3621 200.721 61.085 200.741 60.7426C200.771 60.39 200.786 60.1331 200.786 59.972C200.796 59.8007 200.801 59.5539 200.801 59.2316C200.801 58.879 200.801 58.6272 200.801 58.4761C200.801 58.325 200.786 58.0631 200.756 57.6904C200.726 57.3177 200.686 57.0306 200.635 56.8291C200.595 56.6277 200.519 56.3809 200.409 56.0888C200.298 55.7966 200.167 55.575 200.016 55.4239C199.865 55.2728 199.668 55.1419 199.427 55.0311Z" fill="#8A8A8A"/>
<path d="M138.682 13.4769H137.367C137.297 12.9632 137.105 12.5602 136.793 12.2681C136.491 11.9659 136.078 11.8148 135.554 11.8148C135.191 11.8148 134.864 11.8803 134.572 12.0112C134.29 12.1422 134.058 12.3336 133.877 12.5854C133.706 12.8272 133.56 13.074 133.439 13.3258C133.318 13.5776 133.227 13.8849 133.167 14.2475C133.106 14.6101 133.066 14.9073 133.046 15.139C133.026 15.3606 133.006 15.6326 132.985 15.9549C133.57 15.0181 134.456 14.5497 135.645 14.5497C136.642 14.5497 137.443 14.867 138.047 15.5016C138.662 16.1261 138.969 16.9521 138.969 17.9796C138.969 19.0373 138.647 19.9086 138.002 20.5936C137.367 21.2786 136.516 21.6211 135.448 21.6211C132.96 21.6211 131.716 19.8482 131.716 16.3024C131.716 15.7484 131.746 15.2246 131.807 14.731C131.877 14.2374 131.998 13.7388 132.17 13.2351C132.351 12.7214 132.583 12.2832 132.865 11.9206C133.147 11.558 133.519 11.2658 133.983 11.0442C134.456 10.8125 134.995 10.6967 135.599 10.6967C136.496 10.6967 137.216 10.9435 137.76 11.4371C138.304 11.9206 138.611 12.6005 138.682 13.4769ZM135.418 15.6678C134.763 15.6678 134.235 15.8894 133.832 16.3326C133.429 16.7658 133.227 17.3349 133.227 18.04C133.227 18.7754 133.429 19.3647 133.832 19.8079C134.245 20.2511 134.784 20.4727 135.448 20.4727C136.093 20.4727 136.612 20.2612 137.005 19.8381C137.408 19.405 137.609 18.8257 137.609 18.1005C137.609 17.3551 137.413 16.7658 137.02 16.3326C136.627 15.8894 136.093 15.6678 135.418 15.6678ZM143.708 10.6967C144.353 10.6967 144.902 10.8176 145.355 11.0593C145.819 11.291 146.171 11.5781 146.413 11.9206C146.655 12.2631 146.846 12.7113 146.987 13.2654C147.128 13.8093 147.214 14.3029 147.244 14.7461C147.274 15.1793 147.289 15.7031 147.289 16.3175C147.289 16.8816 147.264 17.3903 147.214 17.8436C147.173 18.2969 147.078 18.7703 146.927 19.2639C146.786 19.7575 146.589 20.1705 146.337 20.5029C146.086 20.8253 145.743 21.0922 145.31 21.3038C144.877 21.5153 144.363 21.6211 143.769 21.6211C143.144 21.6211 142.6 21.5153 142.137 21.3038C141.684 21.0821 141.331 20.8102 141.079 20.4878C140.827 20.1655 140.626 19.7575 140.475 19.2639C140.334 18.7603 140.243 18.2868 140.203 17.8436C140.163 17.3903 140.142 16.8716 140.142 16.2873C140.142 15.7837 140.152 15.3455 140.173 14.9728C140.203 14.6001 140.253 14.182 140.324 13.7186C140.404 13.2452 140.525 12.8473 140.686 12.525C140.848 12.1926 141.054 11.8803 141.306 11.5882C141.558 11.2961 141.885 11.0744 142.288 10.9233C142.701 10.7722 143.174 10.6967 143.708 10.6967ZM144.539 12.0264C144.298 11.9055 144.021 11.845 143.708 11.845C143.396 11.845 143.119 11.9055 142.877 12.0264C142.636 12.1372 142.439 12.2681 142.288 12.4192C142.137 12.5703 142.006 12.797 141.895 13.0991C141.784 13.3913 141.704 13.6381 141.653 13.8395C141.613 14.041 141.578 14.3331 141.548 14.7159C141.517 15.0886 141.502 15.3555 141.502 15.5167C141.502 15.6678 141.502 15.9247 141.502 16.2873C141.502 16.6399 141.507 16.932 141.517 17.1637C141.527 17.3954 141.553 17.6976 141.593 18.0703C141.633 18.443 141.704 18.7552 141.804 19.0071C141.905 19.2488 142.031 19.4956 142.182 19.7474C142.333 19.9892 142.54 20.1756 142.802 20.3065C143.074 20.4274 143.386 20.4878 143.739 20.4878C144.041 20.4878 144.308 20.4324 144.539 20.3216C144.781 20.2108 144.978 20.0799 145.129 19.9288C145.28 19.7777 145.406 19.5661 145.506 19.2942C145.617 19.0121 145.698 18.7703 145.748 18.5689C145.798 18.3573 145.834 18.0803 145.854 17.7378C145.884 17.3853 145.899 17.1284 145.899 16.9672C145.909 16.796 145.914 16.5492 145.914 16.2269C145.914 15.8743 145.914 15.6225 145.914 15.4714C145.914 15.3203 145.899 15.0584 145.869 14.6857C145.839 14.313 145.798 14.0259 145.748 13.8244C145.708 13.623 145.632 13.3762 145.521 13.084C145.411 12.7919 145.28 12.5703 145.129 12.4192C144.978 12.2681 144.781 12.1372 144.539 12.0264ZM152.104 10.6967C152.749 10.6967 153.298 10.8176 153.751 11.0593C154.215 11.291 154.567 11.5781 154.809 11.9206C155.051 12.2631 155.242 12.7113 155.383 13.2654C155.524 13.8093 155.61 14.3029 155.64 14.7461C155.67 15.1793 155.685 15.7031 155.685 16.3175C155.685 16.8816 155.66 17.3903 155.61 17.8436C155.569 18.2969 155.474 18.7703 155.323 19.2639C155.182 19.7575 154.985 20.1705 154.733 20.5029C154.482 20.8253 154.139 21.0922 153.706 21.3038C153.273 21.5153 152.759 21.6211 152.165 21.6211C151.54 21.6211 150.996 21.5153 150.533 21.3038C150.08 21.0821 149.727 20.8102 149.475 20.4878C149.223 20.1655 149.022 19.7575 148.871 19.2639C148.73 18.7603 148.639 18.2868 148.599 17.8436C148.559 17.3903 148.538 16.8716 148.538 16.2873C148.538 15.7837 148.548 15.3455 148.569 14.9728C148.599 14.6001 148.649 14.182 148.72 13.7186C148.8 13.2452 148.921 12.8473 149.082 12.525C149.243 12.1926 149.45 11.8803 149.702 11.5882C149.954 11.2961 150.281 11.0744 150.684 10.9233C151.097 10.7722 151.57 10.6967 152.104 10.6967ZM152.935 12.0264C152.694 11.9055 152.417 11.845 152.104 11.845C151.792 11.845 151.515 11.9055 151.273 12.0264C151.031 12.1372 150.835 12.2681 150.684 12.4192C150.533 12.5703 150.402 12.797 150.291 13.0991C150.18 13.3913 150.1 13.6381 150.049 13.8395C150.009 14.041 149.974 14.3331 149.944 14.7159C149.913 15.0886 149.898 15.3555 149.898 15.5167C149.898 15.6678 149.898 15.9247 149.898 16.2873C149.898 16.6399 149.903 16.932 149.913 17.1637C149.923 17.3954 149.949 17.6976 149.989 18.0703C150.029 18.443 150.1 18.7552 150.2 19.0071C150.301 19.2488 150.427 19.4956 150.578 19.7474C150.729 19.9892 150.936 20.1756 151.198 20.3065C151.47 20.4274 151.782 20.4878 152.134 20.4878C152.437 20.4878 152.704 20.4324 152.935 20.3216C153.177 20.2108 153.373 20.0799 153.525 19.9288C153.676 19.7777 153.802 19.5661 153.902 19.2942C154.013 19.0121 154.094 18.7703 154.144 18.5689C154.194 18.3573 154.23 18.0803 154.25 17.7378C154.28 17.3853 154.295 17.1284 154.295 16.9672C154.305 16.796 154.31 16.5492 154.31 16.2269C154.31 15.8743 154.31 15.6225 154.31 15.4714C154.31 15.3203 154.295 15.0584 154.265 14.6857C154.235 14.313 154.194 14.0259 154.144 13.8244C154.104 13.623 154.028 13.3762 153.917 13.084C153.807 12.7919 153.676 12.5703 153.525 12.4192C153.373 12.2681 153.177 12.1372 152.935 12.0264Z" fill="#8A8A8A"/>
<path d="M76.6421 7.40626V8.53949H72.3056L71.671 11.7276C72.1948 11.1636 72.915 10.8815 73.8317 10.8815C74.839 10.8815 75.6549 11.2089 76.2795 11.8636C76.904 12.5083 77.2163 13.3494 77.2163 14.387C77.2163 15.4749 76.8738 16.3714 76.1888 17.0765C75.5038 17.7816 74.6123 18.1342 73.5144 18.1342C72.497 18.1342 71.671 17.8521 71.0364 17.288C70.4118 16.7239 70.0845 15.9735 70.0542 15.0367H71.3537C71.404 15.631 71.6307 16.1145 72.0336 16.4872C72.4365 16.8599 72.9352 17.0463 73.5295 17.0463C74.1943 17.0463 74.7483 16.8045 75.1916 16.321C75.6348 15.8375 75.8564 15.2382 75.8564 14.523C75.8564 13.7775 75.6398 13.1732 75.2067 12.7098C74.7735 12.2363 74.2094 11.9996 73.5144 11.9996C72.6279 11.9996 71.943 12.3472 71.4594 13.0422L70.3564 12.9667L71.3537 7.40626H76.6421ZM82.1067 7.20983C82.7514 7.20983 83.3004 7.33071 83.7537 7.57246C84.2171 7.80415 84.5696 8.09123 84.8114 8.43372C85.0532 8.77621 85.2445 9.22447 85.3856 9.77849C85.5266 10.3224 85.6122 10.816 85.6424 11.2592C85.6727 11.6924 85.6878 12.2162 85.6878 12.8307C85.6878 13.3948 85.6626 13.9035 85.6122 14.3567C85.5719 14.81 85.4762 15.2835 85.3251 15.7771C85.1841 16.2707 84.9877 16.6837 84.7358 17.0161C84.484 17.3384 84.1415 17.6053 83.7084 17.8169C83.2752 18.0284 82.7615 18.1342 82.1672 18.1342C81.5426 18.1342 80.9987 18.0284 80.5353 17.8169C80.082 17.5953 79.7295 17.3233 79.4776 17.001C79.2258 16.6786 79.0244 16.2707 78.8733 15.7771C78.7322 15.2734 78.6416 14.8 78.6013 14.3567C78.561 13.9035 78.5408 13.3847 78.5408 12.8004C78.5408 12.2968 78.5509 11.8586 78.5711 11.4859C78.6013 11.1132 78.6516 10.6951 78.7222 10.2318C78.8027 9.75834 78.9236 9.36045 79.0848 9.03811C79.246 8.7057 79.4525 8.39343 79.7043 8.10131C79.9561 7.80918 80.2835 7.58757 80.6864 7.43648C81.0994 7.28538 81.5729 7.20983 82.1067 7.20983ZM82.9378 8.53949C82.696 8.41861 82.419 8.35817 82.1067 8.35817C81.7945 8.35817 81.5175 8.41861 81.2757 8.53949C81.034 8.65029 80.8375 8.78125 80.6864 8.93234C80.5353 9.08344 80.4044 9.31009 80.2936 9.61228C80.1828 9.90441 80.1022 10.1512 80.0518 10.3527C80.0115 10.5541 79.9763 10.8462 79.9461 11.229C79.9158 11.6017 79.9007 11.8687 79.9007 12.0298C79.9007 12.1809 79.9007 12.4378 79.9007 12.8004C79.9007 13.153 79.9058 13.4451 79.9158 13.6768C79.9259 13.9085 79.9511 14.2107 79.9914 14.5834C80.0317 14.9561 80.1022 15.2684 80.2029 15.5202C80.3036 15.762 80.4296 16.0087 80.5807 16.2606C80.7318 16.5023 80.9383 16.6887 81.2002 16.8196C81.4721 16.9405 81.7844 17.001 82.137 17.001C82.4392 17.001 82.7061 16.9456 82.9378 16.8348C83.1795 16.7239 83.376 16.593 83.5271 16.4419C83.6782 16.2908 83.8041 16.0793 83.9048 15.8073C84.0156 15.5252 84.0962 15.2835 84.1466 15.082C84.1969 14.8705 84.2322 14.5935 84.2523 14.251C84.2826 13.8984 84.2977 13.6416 84.2977 13.4804C84.3077 13.3091 84.3128 13.0623 84.3128 12.74C84.3128 12.3874 84.3128 12.1356 84.3128 11.9845C84.3128 11.8334 84.2977 11.5715 84.2674 11.1988C84.2372 10.8261 84.1969 10.539 84.1466 10.3376C84.1063 10.1361 84.0307 9.8893 83.9199 9.59717C83.8091 9.30505 83.6782 9.08344 83.5271 8.93234C83.376 8.78125 83.1795 8.65029 82.9378 8.53949ZM90.5027 7.20983C91.1474 7.20983 91.6964 7.33071 92.1497 7.57246C92.613 7.80415 92.9656 8.09123 93.2073 8.43372C93.4491 8.77621 93.6405 9.22447 93.7815 9.77849C93.9225 10.3224 94.0082 10.816 94.0384 11.2592C94.0686 11.6924 94.0837 12.2162 94.0837 12.8307C94.0837 13.3948 94.0585 13.9035 94.0082 14.3567C93.9679 14.81 93.8722 15.2835 93.7211 15.7771C93.5801 16.2707 93.3836 16.6837 93.1318 17.0161C92.88 17.3384 92.5375 17.6053 92.1043 17.8169C91.6712 18.0284 91.1575 18.1342 90.5631 18.1342C89.9386 18.1342 89.3947 18.0284 88.9313 17.8169C88.478 17.5953 88.1254 17.3233 87.8736 17.001C87.6218 16.6786 87.4203 16.2707 87.2692 15.7771C87.1282 15.2734 87.0375 14.8 86.9972 14.3567C86.9569 13.9035 86.9368 13.3847 86.9368 12.8004C86.9368 12.2968 86.9469 11.8586 86.967 11.4859C86.9972 11.1132 87.0476 10.6951 87.1181 10.2318C87.1987 9.75834 87.3196 9.36045 87.4807 9.03811C87.6419 8.7057 87.8484 8.39343 88.1002 8.10131C88.3521 7.80918 88.6795 7.58757 89.0824 7.43648C89.4954 7.28538 89.9688 7.20983 90.5027 7.20983ZM91.3337 8.53949C91.092 8.41861 90.815 8.35817 90.5027 8.35817C90.1904 8.35817 89.9134 8.41861 89.6717 8.53949C89.4299 8.65029 89.2335 8.78125 89.0824 8.93234C88.9313 9.08344 88.8003 9.31009 88.6895 9.61228C88.5787 9.90441 88.4981 10.1512 88.4478 10.3527C88.4075 10.5541 88.3722 10.8462 88.342 11.229C88.3118 11.6017 88.2967 11.8687 88.2967 12.0298C88.2967 12.1809 88.2967 12.4378 88.2967 12.8004C88.2967 13.153 88.3017 13.4451 88.3118 13.6768C88.3219 13.9085 88.347 14.2107 88.3873 14.5834C88.4276 14.9561 88.4981 15.2684 88.5989 15.5202C88.6996 15.762 88.8255 16.0087 88.9766 16.2606C89.1277 16.5023 89.3342 16.6887 89.5961 16.8196C89.8681 16.9405 90.1804 17.001 90.5329 17.001C90.8351 17.001 91.1021 16.9456 91.3337 16.8348C91.5755 16.7239 91.7719 16.593 91.923 16.4419C92.0741 16.2908 92.2 16.0793 92.3008 15.8073C92.4116 15.5252 92.4922 15.2835 92.5425 15.082C92.5929 14.8705 92.6281 14.5935 92.6483 14.251C92.6785 13.8984 92.6936 13.6416 92.6936 13.4804C92.7037 13.3091 92.7087 13.0623 92.7087 12.74C92.7087 12.3874 92.7087 12.1356 92.7087 11.9845C92.7087 11.8334 92.6936 11.5715 92.6634 11.1988C92.6332 10.8261 92.5929 10.539 92.5425 10.3376C92.5022 10.1361 92.4267 9.8893 92.3159 9.59717C92.2051 9.30505 92.0741 9.08344 91.923 8.93234C91.7719 8.78125 91.5755 8.65029 91.3337 8.53949Z" fill="#8A8A8A"/>
<defs>
<clipPath id="clip0_267_4623">
<rect width="12.7852" height="12.7852" fill="white" transform="translate(143.912 42.9536)"/>
</clipPath>
</defs>
</svg>
